<?xml version="1.0" encoding="utf-8"?>
<!-- Generator: Adobe Illustrator 24.1.0, SVG Export Plug-In . SVG Version: 6.00 Build 0)  -->
<svg version="1.1" id="Layer_1" xmlns="http://www.w3.org/2000/svg" xmlns:xlink="http://www.w3.org/1999/xlink" x="0px" y="0px"
	 viewBox="0 0 288 206" style="enable-background:new 0 0 288 206;" xml:space="preserve">
<style type="text/css">
	.st0{fill:#789904;}
	.st1{fill:#6D6E70;}
</style>
<g>
	<g>
		<path class="st0" d="M214.33,55.89h-22.69h-12.29h-28.4l-6.48,11.97h34.88c-3.79,12.6-19.28,22.06-37.76,22.06
			c-13.28,0-25.02-4.89-31.98-12.31l-11.76,4.37c8.78,11.89,25.09,19.9,43.74,19.9c25.34,0,46.39-14.79,50.05-34.03h10.08
			c-3.5,24.12-29.2,42.91-60.31,42.91c-33.49,0-60.73-21.77-60.73-48.53c0-26.76,27.24-48.53,60.73-48.53
			c22.34,0,43,9.99,53.54,25.66l11.47-4.27c-12.4-20.59-37.23-33.36-65-33.36c-40.09,0-72.7,27.14-72.7,60.5
			c0,33.36,32.61,60.5,72.7,60.5c40.09,0,72.93-27.97,72.93-61.33C214.35,60.23,214.41,57.07,214.33,55.89z"/>
		<path class="st0" d="M141.59,33.82c13.8,0,25.93,5.28,32.77,13.19L186,42.69c-8.61-12.4-25.29-20.83-44.41-20.83
			c-27.91,0-50.62,17.95-50.62,40.01c0,2.03,0.2,4.03,0.57,5.98h5.42h6.88h31.98l6.48-11.97h-38.46
			C107.62,43.29,123.11,33.82,141.59,33.82z"/>
	</g>
	<g>
		<path class="st1" d="M22.75,163.76v-4.39h14.12c0.09,0.55,0.14,1.19,0.14,1.74c-0.23,7.45-7.5,12.29-16.86,12.29
			c-11.06,0-18.23-5.53-18.23-13.3c0-7.81,7.36-13.12,18.05-13.12c4.66,0,9.46,0.69,13.25,2.42v4.71c-2.65-1.28-6.35-2.7-12.57-2.7
			c-7.4,0-13.21,2.88-13.21,8.68c0,5.39,5.35,8.87,12.66,8.87c5.44,0,10.01-1.65,11.11-5.21H22.75z"/>
		<path class="st1" d="M45.22,172.95v-25.5h25.82v4.34H50.48v5.85h17v4.39h-17v6.53h20.57v4.39H45.22z"/>
		<path class="st1" d="M95.9,173.41c-11.01,0-18.42-5.3-18.42-13.21c0-7.86,7.4-13.21,18.42-13.21c11.01,0,18.51,5.3,18.51,13.21
			C114.41,168.1,107.24,173.41,95.9,173.41z M95.9,151.42c-7.4,0-12.89,3.24-12.89,8.77c0,5.57,5.53,8.82,12.89,8.82
			c7.4,0,12.98-3.25,12.98-8.82C108.88,154.67,103.26,151.42,95.9,151.42z"/>
		<path class="st1" d="M144.66,172.95l-6.26-8.77h-9.87v8.77h-5.21v-25.5h17.5c6.58,0,9.46,4.43,9.46,8.36
			c0,3.15-2.06,6.31-6.31,7.68l6.67,9.46H144.66z M128.52,151.83v7.95h11.06c3.84,0,5.25-1.83,5.25-3.98c0-2.1-1.42-3.98-5.25-3.98
			H128.52z"/>
		<path class="st1" d="M178.38,163.76v-4.39h14.12c0.09,0.55,0.14,1.19,0.14,1.74c-0.23,7.45-7.49,12.29-16.86,12.29
			c-11.06,0-18.24-5.53-18.24-13.3c0-7.81,7.36-13.12,18.05-13.12c4.66,0,9.46,0.69,13.25,2.42v4.71c-2.65-1.28-6.35-2.7-12.57-2.7
			c-7.4,0-13.21,2.88-13.21,8.68c0,5.39,5.35,8.87,12.66,8.87c5.44,0,10.01-1.65,11.11-5.21H178.38z"/>
		<path class="st1" d="M200.86,172.95v-25.5h5.21v25.5H200.86z"/>
		<path class="st1" d="M246.33,170.94c-3.61,1.78-8.23,2.47-12.57,2.47c-11.47,0-18.78-5.3-18.78-13.16s7.27-13.25,18.65-13.25
			c4.2,0,9,0.64,12.71,2.47v4.52c-2.33-1.1-6.63-2.65-12.39-2.65c-8.91,0-13.39,3.93-13.39,8.87c0,4.89,4.39,8.82,13.48,8.82
			c5.99,0,10.42-1.65,12.29-2.56V170.94z"/>
		<path class="st1" d="M276.07,167.83h-15.9l-3.25,5.12h-5.8l17-25.96l17,25.96h-5.8L276.07,167.83z M262.95,163.4h10.28l-5.12-8.09
			L262.95,163.4z"/>
		<path class="st1" d="M64.04,190.2c-2.01-0.71-4.67-0.91-7.21-0.91c-2.12,0-5.97,0.11-5.97,2.32c0,4.5,14.34,0,14.34,7.3
			c0,4.07-4.67,4.78-8.63,4.78c-2.91,0-6.11-0.34-8.46-0.96l0.09-2.07c2.43,0.71,5.66,1.05,8.4,1.05c2.91,0,6.28-0.42,6.28-2.69
			c0-4.87-14.34-0.23-14.34-7.24c0-4.02,4.95-4.44,8.23-4.44c3.14,0,5.63,0.34,7.38,0.91L64.04,190.2z"/>
		<path class="st1" d="M81.61,203.69c-6.62,0-11.32-3.14-11.32-8.18c0-5.01,4.72-8.18,11.32-8.18c6.59,0,11.35,3.14,11.35,8.18
			C92.96,200.55,88.32,203.69,81.61,203.69z M81.61,189.43c-4.92,0-8.71,2.15-8.71,6.08c0,3.96,3.79,6.08,8.71,6.08
			c4.92,0,8.74-2.12,8.74-6.08C90.35,191.58,86.53,189.43,81.61,189.43z"/>
		<path class="st1" d="M102.03,196.73v6.68h-2.49v-15.79h15.9v2.07h-13.41v4.98h11.01v2.07H102.03z"/>
		<path class="st1" d="M126.98,203.41v-13.72h-7.56v-2.07H137v2.07h-7.55v13.72H126.98z"/>
		<path class="st1" d="M154.33,192.04l-6,11.66l-8.12-16.07h2.74l5.38,11.46l6-11.74l5.86,11.74l5.55-11.46h2.75l-8.12,16.07
			L154.33,192.04z"/>
		<path class="st1" d="M185.31,199.51h-10.53l-2.52,3.9h-2.74l10.52-16.07l10.55,16.07h-2.77L185.31,199.51z M176.11,197.41h7.84
			l-3.91-6.08L176.11,197.41z"/>
		<path class="st1" d="M209.52,203.41l-4.22-5.86h-7.05v5.86h-2.49v-15.79h10.5c3.62,0,5.86,2.12,5.86,4.98
			c0,2.38-1.61,4.05-4.16,4.67l4.38,6.14H209.52z M198.26,189.69v5.83h7.5c2.46,0,3.82-0.99,3.82-2.91c0-1.92-1.36-2.91-3.82-2.91
			H198.26z"/>
		<path class="st1" d="M218.94,203.41v-15.79h15.9v2.04h-13.41v4.53h11.15v2.07h-11.15v5.09h13.41v2.07H218.94z"/>
	</g>
</g>
</svg>
