<?xml version="1.0" encoding="utf-8"?>
<!-- Generator: Adobe Illustrator 24.1.0, SVG Export Plug-In . SVG Version: 6.00 Build 0)  -->
<svg version="1.1" id="Layer_1" xmlns="http://www.w3.org/2000/svg" xmlns:xlink="http://www.w3.org/1999/xlink" x="0px" y="0px"
	 viewBox="0 0 360 79.21" style="enable-background:new 0 0 360 79.21;" xml:space="preserve">
<style type="text/css">
	.st0{fill:#789904;}
	.st1{fill:#6D6E70;}
</style>
<g>
	<g>
		<path class="st0" d="M91.56,35.75H77.53h-7.6H52.37l-4.01,7.4h21.57c-2.34,7.79-11.92,13.64-23.35,13.64
			c-8.21,0-15.47-3.02-19.77-7.61l-7.27,2.7c5.43,7.35,15.51,12.31,27.04,12.31c15.67,0,28.68-9.15,30.95-21.04h6.23
			C81.6,58.07,65.71,69.68,46.48,69.68c-20.7,0-37.55-13.46-37.55-30.01c0-16.54,16.84-30,37.55-30c13.81,0,26.58,6.18,33.1,15.86
			l7.09-2.64C79,10.17,63.65,2.27,46.48,2.27c-24.78,0-44.95,16.78-44.95,37.4c0,20.62,20.16,37.4,44.95,37.4
			c24.78,0,45.09-17.29,45.09-37.92C91.57,38.44,91.61,36.49,91.56,35.75z"/>
		<path class="st0" d="M46.58,22.11c8.53,0,16.03,3.26,20.26,8.16l7.2-2.68c-5.32-7.67-15.63-12.88-27.46-12.88
			c-17.26,0-31.3,11.1-31.3,24.74c0,1.26,0.12,2.49,0.35,3.7h3.35h4.25h19.77l4.01-7.4H23.24C25.58,27.97,35.16,22.11,46.58,22.11z"
			/>
	</g>
	<g>
		<path class="st1" d="M128,32.28v-3.86h12.41c0.08,0.48,0.12,1.04,0.12,1.53c-0.2,6.55-6.59,10.8-14.82,10.8
			c-9.72,0-16.02-4.86-16.02-11.69c0-6.87,6.47-11.53,15.86-11.53c4.1,0,8.31,0.6,11.65,2.13v4.14c-2.33-1.12-5.58-2.37-11.05-2.37
			c-6.51,0-11.61,2.53-11.61,7.63c0,4.74,4.7,7.79,11.12,7.79c4.78,0,8.8-1.45,9.76-4.58H128z"/>
		<path class="st1" d="M147.75,40.35V17.94h22.69v3.82h-18.07v5.14h14.94v3.86h-14.94v5.74h18.07v3.86H147.75z"/>
		<path class="st1" d="M192.29,40.75c-9.68,0-16.19-4.66-16.19-11.61c0-6.91,6.51-11.61,16.19-11.61c9.68,0,16.27,4.66,16.27,11.61
			C208.56,36.09,202.25,40.75,192.29,40.75z M192.29,21.44c-6.51,0-11.33,2.85-11.33,7.71c0,4.9,4.86,7.75,11.33,7.75
			c6.51,0,11.41-2.85,11.41-7.75C203.7,24.29,198.76,21.44,192.29,21.44z"/>
		<path class="st1" d="M235.14,40.35l-5.5-7.71h-8.68v7.71h-4.58V17.94h15.38c5.78,0,8.31,3.9,8.31,7.35c0,2.77-1.81,5.54-5.54,6.75
			l5.86,8.31H235.14z M220.96,21.8v6.99h9.72c3.37,0,4.62-1.61,4.62-3.49c0-1.85-1.24-3.49-4.62-3.49H220.96z"/>
		<path class="st1" d="M264.77,32.28v-3.86h12.41c0.08,0.48,0.12,1.04,0.12,1.53c-0.2,6.55-6.59,10.8-14.82,10.8
			c-9.72,0-16.03-4.86-16.03-11.69c0-6.87,6.47-11.53,15.86-11.53c4.1,0,8.31,0.6,11.65,2.13v4.14c-2.33-1.12-5.58-2.37-11.05-2.37
			c-6.51,0-11.61,2.53-11.61,7.63c0,4.74,4.7,7.79,11.12,7.79c4.78,0,8.8-1.45,9.76-4.58H264.77z"/>
		<path class="st1" d="M284.53,40.35V17.94h4.58v22.41H284.53z"/>
		<path class="st1" d="M324.48,38.58c-3.17,1.57-7.23,2.17-11.05,2.17c-10.08,0-16.51-4.66-16.51-11.57s6.39-11.65,16.39-11.65
			c3.69,0,7.91,0.56,11.17,2.17v3.98c-2.05-0.96-5.82-2.33-10.88-2.33c-7.83,0-11.77,3.45-11.77,7.79c0,4.3,3.86,7.75,11.85,7.75
			c5.26,0,9.16-1.45,10.8-2.25V38.58z"/>
		<path class="st1" d="M350.62,35.85h-13.98l-2.85,4.5h-5.1l14.94-22.81l14.94,22.81h-5.1L350.62,35.85z M339.1,31.96h9.04
			l-4.5-7.11L339.1,31.96z"/>
		<path class="st1" d="M165.17,55.51c-1.77-0.62-4.1-0.8-6.34-0.8c-1.87,0-5.25,0.1-5.25,2.04c0,3.95,12.61,0,12.61,6.42
			c0,3.58-4.1,4.2-7.58,4.2c-2.56,0-5.37-0.3-7.44-0.85l0.07-1.82c2.14,0.62,4.97,0.92,7.39,0.92c2.56,0,5.52-0.37,5.52-2.36
			c0-4.28-12.61-0.2-12.61-6.37c0-3.53,4.35-3.9,7.24-3.9c2.76,0,4.95,0.3,6.49,0.8L165.17,55.51z"/>
		<path class="st1" d="M180.61,67.37c-5.82,0-9.95-2.76-9.95-7.19c0-4.4,4.15-7.19,9.95-7.19s9.97,2.76,9.97,7.19
			S186.5,67.37,180.61,67.37z M180.61,54.84c-4.33,0-7.66,1.89-7.66,5.35c0,3.48,3.33,5.35,7.66,5.35s7.68-1.86,7.68-5.35
			C188.29,56.73,184.94,54.84,180.61,54.84z"/>
		<path class="st1" d="M198.56,61.25v5.87h-2.19V53.25h13.97v1.82h-11.79v4.38h9.67v1.82H198.56z"/>
		<path class="st1" d="M220.48,67.12V55.06h-6.64v-1.82h15.44v1.82h-6.64v12.06H220.48z"/>
		<path class="st1" d="M244.52,57.13l-5.27,10.24l-7.14-14.12h2.41l4.72,10.07L244.52,53l5.15,10.32l4.87-10.07h2.41l-7.14,14.12
			L244.52,57.13z"/>
		<path class="st1" d="M271.74,63.69h-9.25l-2.21,3.43h-2.41L267.12,53l9.28,14.12h-2.44L271.74,63.69z M263.66,61.85h6.89
			l-3.43-5.35L263.66,61.85z"/>
		<path class="st1" d="M293.02,67.12l-3.71-5.15h-6.19v5.15h-2.19V53.25h9.23c3.18,0,5.15,1.86,5.15,4.38c0,2.09-1.42,3.56-3.66,4.1
			l3.85,5.4H293.02z M283.12,55.06v5.12h6.59c2.16,0,3.36-0.87,3.36-2.56c0-1.69-1.19-2.56-3.36-2.56H283.12z"/>
		<path class="st1" d="M301.29,67.12V53.25h13.98v1.79h-11.79v3.98h9.8v1.82h-9.8v4.48h11.79v1.82H301.29z"/>
	</g>
</g>
</svg>
